<svg width="50" height="50" viewBox="0 0 50 50" fill="none" xmlns="http://www.w3.org/2000/svg">
<path d="M36 25.0417C36.2531 25.0417 36.4583 25.2469 36.4583 25.5C36.4583 25.7531 36.2531 25.9583 36 25.9583L36 25.0417ZM14 25.5L13.9403 25.9544C13.7122 25.9245 13.5417 25.7301 13.5417 25.5C13.5417 25.2699 13.7122 25.0755 13.9403 25.0456L14 25.5ZM25.1571 20L24.7934 19.7212C24.938 19.5325 25.203 19.4857 25.4035 19.6135C25.604 19.7413 25.6735 20.0012 25.5635 20.212L25.1571 20ZM25.1571 31L25.5635 30.788C25.6735 30.9988 25.604 31.2587 25.4035 31.3865C25.203 31.5143 24.938 31.4675 24.7934 31.2788L25.1571 31ZM36 25.9583L14 25.9583L14 25.0417L36 25.0417L36 25.9583ZM13.9403 25.0456C17.1506 24.624 19.207 24.1293 20.7845 23.3329C22.3473 22.5438 23.4759 21.44 24.7934 19.7212L25.5209 20.2788C24.1623 22.0515 22.9337 23.2746 21.1977 24.1511C19.4764 25.0202 17.2923 25.5299 14.0597 25.9544L13.9403 25.0456ZM14.0597 25.0456C17.2923 25.4701 19.4764 25.9798 21.1977 26.8489C22.9337 27.7254 24.1623 28.9485 25.5209 30.7212L24.7934 31.2788C23.4759 29.56 22.3473 28.4562 20.7845 27.6671C19.207 26.8706 17.1506 26.376 13.9403 25.9544L14.0597 25.0456ZM31.2857 25.9583L14 25.9583L14 25.0417L31.2857 25.0417L31.2857 25.9583ZM14 25.0417C17.2628 25.0417 19.4954 24.5744 21.1305 23.7011C22.7537 22.8341 23.836 21.5413 24.7508 19.788L25.5635 20.212C24.5926 22.0729 23.3963 23.5301 21.5624 24.5096C19.7404 25.4828 17.3372 25.9583 14 25.9583L14 25.0417ZM14 25.0417C17.3372 25.0417 19.7404 25.5172 21.5624 26.4904C23.3963 27.4699 24.5926 28.9271 25.5635 30.788L24.7508 31.212C23.836 29.4587 22.7537 28.1659 21.1305 27.2989C19.4954 26.4256 17.2628 25.9583 14 25.9583L14 25.0417Z" fill="#1D1D1C"/>
<rect x="0.5" y="0.5" width="49" height="49" rx="13.5" stroke="#F0F1F5"/>
</svg>
