<svg width="122" height="37" viewBox="0 0 122 37" fill="none" xmlns="http://www.w3.org/2000/svg">
<path d="M121 18.5C100.5 21.1923 94.0148 24.8907 85.5 36C91.5 24.5 100 18.5 121 18.5Z" fill="#232323"/>
<path d="M121 18.5C100.5 15.8077 94.0148 12.1093 85.5 0.999996C91.5 12.5 100 18.5 121 18.5Z" fill="#232323"/>
<path d="M1 17.5C0.447715 17.5 -1.42303e-08 17.9477 9.91084e-09 18.5C-2.55527e-08 19.0523 0.447715 19.5 1 19.5L1 17.5ZM121 18.5L121.13 19.4915C121.628 19.4261 122 19.0019 122 18.5C122 17.998 121.628 17.5739 121.13 17.5085L121 18.5ZM85.5 0.999996L86.2937 0.39167C85.9781 -0.0200843 85.4 -0.12212 84.9625 0.156704C84.5251 0.435532 84.3734 1.00261 84.6134 1.46256L85.5 0.999996ZM85.5 36L84.6134 35.5374C84.3734 35.9974 84.5251 36.5645 84.9625 36.8433C85.4 37.1221 85.9781 37.0201 86.2937 36.6083L85.5 36ZM1 19.5L121 19.5L121 17.5L1 17.5L1 19.5ZM121.13 17.5085C110.905 16.1656 104.298 14.5843 99.2063 12.0137C94.1471 9.45931 90.5061 5.88766 86.2937 0.39167L84.7063 1.60832C89.0087 7.22166 92.8677 11.0538 98.3048 13.799C103.71 16.5281 110.595 18.1421 120.87 19.4915L121.13 17.5085ZM120.87 17.5085C110.595 18.8579 103.71 20.4719 98.3048 23.2009C92.8677 25.9461 89.0087 29.7783 84.7063 35.3917L86.2937 36.6083C90.5061 31.1123 94.1471 27.5407 99.2063 24.9863C104.298 22.4157 110.905 20.8344 121.13 19.4915L120.87 17.5085ZM76 19.5L121 19.5L121 17.5L76 17.5L76 19.5ZM121 17.5C110.581 17.5 103.392 16.009 98.0961 13.1804C92.826 10.3657 89.3253 6.17006 86.3866 0.53743L84.6134 1.46256C87.6747 7.32994 91.424 11.8843 97.1539 14.9446C102.858 17.9909 110.419 19.5 121 19.5L121 17.5ZM121 17.5C110.419 17.5 102.858 19.0091 97.1539 22.0554C91.424 25.1157 87.6747 29.6701 84.6134 35.5374L86.3866 36.4626C89.3253 30.8299 92.826 26.6343 98.0961 23.8196C103.392 20.9909 110.581 19.5 121 19.5L121 17.5Z" fill="#F8FAFB"/>
</svg>
