<svg width="9" height="9" viewBox="0 0 9 9" fill="none" xmlns="http://www.w3.org/2000/svg">
<path fill-rule="evenodd" clip-rule="evenodd" d="M4.5 9C0.79425 9 0 8.20575 0 4.5C0 0.79425 0.79425 0 4.5 0C8.20575 0 9 0.79425 9 4.5C9 8.20575 8.20575 9 4.5 9ZM4.05346 6.83632C3.85016 6.7968 3.71738 6.59995 3.7569 6.39665L4.50394 2.55347C4.54346 2.35017 4.7403 2.21739 4.9436 2.25691C5.14691 2.29643 5.27968 2.49327 5.24016 2.69658L4.49312 6.53976C4.4536 6.74306 4.25676 6.87583 4.05346 6.83632ZM3.26518 4.01517C3.41162 3.86872 3.41162 3.63129 3.26518 3.48484C3.11873 3.33839 2.88129 3.33839 2.73485 3.48484L1.98485 4.23484C1.8384 4.38129 1.8384 4.61872 1.98485 4.76517L2.73485 5.51517C2.88129 5.66162 3.11873 5.66162 3.26518 5.51517C3.41162 5.36872 3.41162 5.13129 3.26518 4.98484L2.78034 4.5L3.26518 4.01517ZM5.73485 4.01517C5.5884 3.86872 5.5884 3.63129 5.73485 3.48484C5.88129 3.33839 6.11873 3.33839 6.26518 3.48484L7.01518 4.23484C7.16162 4.38129 7.16162 4.61872 7.01518 4.76517L6.26518 5.51517C6.11873 5.66162 5.88129 5.66162 5.73485 5.51517C5.5884 5.36872 5.5884 5.13129 5.73485 4.98484L6.21968 4.5L5.73485 4.01517Z" fill="#51459E"/>
</svg>
