<svg width="50" height="50" viewBox="0 0 50 50" fill="none" xmlns="http://www.w3.org/2000/svg">
<g filter="url(#filter0_b_2_1475)">
<rect width="50" height="50" rx="14" fill="white"/>
<path d="M18.1597 29.56C15.7397 31.18 15.7397 33.82 18.1597 35.43C20.9097 37.27 25.4197 37.27 28.1697 35.43C30.5897 33.81 30.5897 31.17 28.1697 29.56C25.4297 27.73 20.9197 27.73 18.1597 29.56Z" fill="url(#paint0_linear_2_1475)"/>
<path d="M23.1596 25.87C23.0596 25.86 22.9396 25.86 22.8296 25.87C20.4496 25.79 18.5596 23.84 18.5596 21.44C18.5596 18.99 20.5396 17 22.9996 17C25.4496 17 27.4396 18.99 27.4396 21.44C27.4296 23.84 25.5396 25.79 23.1596 25.87Z" fill="url(#paint1_linear_2_1475)"/>
<path d="M25.1601 23.87C25.0601 23.86 24.9401 23.86 24.8301 23.87C22.4501 23.79 20.5601 21.84 20.5601 19.44C20.5601 16.99 22.5401 15 25.0001 15C27.4501 15 29.4401 16.99 29.4401 19.44C29.4301 21.84 27.5401 23.79 25.1601 23.87Z" stroke="#161616" stroke-width="1.5" stroke-linecap="round" stroke-linejoin="round"/>
<path d="M20.16 27.56C17.74 29.18 17.74 31.82 20.16 33.43C22.91 35.27 27.42 35.27 30.17 33.43C32.59 31.81 32.59 29.17 30.17 27.56C27.43 25.73 22.92 25.73 20.16 27.56Z" stroke="#161616" stroke-width="1.5" stroke-linecap="round" stroke-linejoin="round"/>
<rect x="0.577381" y="0.577381" width="48.8452" height="48.8452" rx="13.4226" stroke="url(#paint2_linear_2_1475)" stroke-width="1.15476"/>
</g>
<defs>
<filter id="filter0_b_2_1475" x="-11.5476" y="-11.5476" width="73.0952" height="73.0952" filterUnits="userSpaceOnUse" color-interpolation-filters="sRGB">
<feFlood flood-opacity="0" result="BackgroundImageFix"/>
<feGaussianBlur in="BackgroundImage" stdDeviation="5.77381"/>
<feComposite in2="SourceAlpha" operator="in" result="effect1_backgroundBlur_2_1475"/>
<feBlend mode="normal" in="SourceGraphic" in2="effect1_backgroundBlur_2_1475" result="shape"/>
</filter>
<linearGradient id="paint0_linear_2_1475" x1="23.1647" y1="28.1875" x2="23.1647" y2="36.81" gradientUnits="userSpaceOnUse">
<stop stop-color="#6D96FF" stop-opacity="0.44"/>
<stop offset="1" stop-color="#D67DFF" stop-opacity="0.53"/>
</linearGradient>
<linearGradient id="paint1_linear_2_1475" x1="22.9996" y1="17" x2="22.9996" y2="25.87" gradientUnits="userSpaceOnUse">
<stop stop-color="#6D96FF" stop-opacity="0.44"/>
<stop offset="1" stop-color="#D67DFF" stop-opacity="0.53"/>
</linearGradient>
<linearGradient id="paint2_linear_2_1475" x1="48.7313" y1="4.00841e-07" x2="-3.49754" y2="43.8833" gradientUnits="userSpaceOnUse">
<stop stop-color="#6D96FF" stop-opacity="0.44"/>
<stop offset="1" stop-color="#D67DFF" stop-opacity="0.53"/>
</linearGradient>
</defs>
</svg>
