<svg width="13" height="12" viewBox="0 0 13 12" fill="none" xmlns="http://www.w3.org/2000/svg">
<path fill-rule="evenodd" clip-rule="evenodd" d="M4.68323 11.3818C4.41614 11.315 4.22877 11.075 4.22877 10.7997V6.22529L0.17732 1.59506C0.112488 1.52097 0.066885 1.43206 0.0445347 1.33618C-0.0124874 1.09156 -0.0103912 0.874106 0.0251532 0.643156L0.0291185 0.618319C0.0208025 0.312342 0.220715 0 0.628855 0H11.4286C11.8367 0 12.0366 0.312342 12.0283 0.618319L12.0323 0.643156C12.0678 0.874106 12.0699 1.09156 12.0129 1.33618C11.9906 1.43206 11.945 1.52097 11.8801 1.59506L7.82868 6.22529V11.3997C7.82868 11.7901 7.46185 12.0765 7.08317 11.9818L4.68323 11.3818ZM5.28029 5.60476C5.37599 5.71413 5.42874 5.85452 5.42874 5.99985V10.3313L6.62871 10.6313V5.99985C6.62871 5.85452 6.68146 5.71413 6.77716 5.60476L10.6313 1.19997H1.4261L5.28029 5.60476Z" fill="#424347"/>
</svg>
