<svg width="50" height="50" viewBox="0 0 50 50" fill="none" xmlns="http://www.w3.org/2000/svg">
<rect x="0.5" y="0.5" width="49" height="49" rx="13.5" stroke="#F0F1F5"/>
<path fill-rule="evenodd" clip-rule="evenodd" d="M31.1482 22.0632C31.1482 23.2145 31.4525 23.8931 32.1221 24.675C32.6295 25.2511 32.7917 25.9907 32.7917 26.7929C32.7917 27.5943 32.5284 28.355 32.0009 28.9727C31.3104 29.7131 30.3365 30.1858 29.3425 30.268C27.9022 30.3908 26.4609 30.4942 25.0005 30.4942C23.5392 30.4942 22.0988 30.4323 20.6585 30.268C19.6636 30.1858 18.6897 29.7131 18.0001 28.9727C17.4726 28.355 17.2084 27.5943 17.2084 26.7929C17.2084 25.9907 17.3715 25.2511 17.878 24.675C18.5686 23.8931 18.8528 23.2145 18.8528 22.0632V21.6727C18.8528 20.1309 19.2373 19.1227 20.029 18.1358C21.206 16.6965 23.0928 15.8333 24.9595 15.8333H25.0415C26.9483 15.8333 28.8961 16.738 30.0531 18.2392C30.8038 19.2058 31.1482 20.1715 31.1482 21.6727V22.0632ZM22.3175 32.389C22.3175 31.9274 22.7412 31.716 23.1329 31.6255C23.5912 31.5286 26.3835 31.5286 26.8417 31.6255C27.2335 31.716 27.6571 31.9274 27.6571 32.389C27.6343 32.8285 27.3765 33.2181 27.0203 33.4655C26.5584 33.8256 26.0163 34.0536 25.4497 34.1358C25.1363 34.1764 24.8283 34.1773 24.5259 34.1358C23.9583 34.0536 23.4162 33.8256 22.9552 33.4646C22.5981 33.2181 22.3403 32.8285 22.3175 32.389Z" fill="#090A0A"/>
</svg>
