<svg width="9" height="9" viewBox="0 0 9 9" fill="none" xmlns="http://www.w3.org/2000/svg">
<path d="M0.00225827 1.04754C-0.0244824 0.862379 0.192461 0.799345 0.324747 0.931631L2.14875 2.75564C2.2218 2.82869 2.25833 2.86522 2.28688 2.91287C2.31542 2.96052 2.38701 3.19689 2.53019 3.66962C2.57233 3.80876 2.6484 3.93983 2.75839 4.04982C3.11502 4.40645 3.69322 4.40645 4.04984 4.04982C4.40646 3.6932 4.40646 3.115 4.04984 2.75837C3.93986 2.64839 3.80881 2.57233 3.66969 2.53018C3.19706 2.38701 2.96074 2.31542 2.9131 2.28687C2.86545 2.25833 2.82893 2.2218 2.75588 2.14875L0.931678 0.324544C0.799473 0.192339 0.862489 -0.0244675 1.04754 0.00225695L4.78414 0.541899C5.73043 0.678563 6.54146 1.29213 6.93099 2.16607L7.65041 3.87095C7.76449 4.14128 7.82152 4.27645 7.79518 4.41121C7.76884 4.54596 7.6651 4.6497 7.45763 4.85717L4.85716 7.45765C4.64968 7.66513 4.54595 7.76886 4.41119 7.79521C4.27643 7.82155 4.14127 7.76451 3.87094 7.65044L2.16606 6.93102C1.29213 6.54148 0.678563 5.73045 0.541899 4.78416L0.00225827 1.04754Z" fill="#51459E"/>
<path d="M5.83696 7.69546C5.49688 8.03553 5.32685 8.20557 5.36211 8.43146C5.39737 8.65736 5.56228 8.74232 5.8921 8.91224C6.00565 8.97075 6.11496 9 6.23137 9C6.60413 9 6.9041 8.70003 7.50404 8.10008L8.10008 7.50404C8.70003 6.90409 9 6.60412 9 6.23136C9 6.11495 8.97075 6.00564 8.91224 5.89208C8.74232 5.56226 8.65736 5.39735 8.43147 5.36209C8.20557 5.32683 8.03553 5.49687 7.69546 5.83695L5.83696 7.69546Z" fill="#51459E"/>
</svg>
