<svg width="24" height="13" viewBox="0 0 24 13" fill="none" xmlns="http://www.w3.org/2000/svg">
<path d="M1 6.04167C0.746869 6.04167 0.541666 6.24687 0.541666 6.5C0.541666 6.75313 0.746869 6.95833 1 6.95833L1 6.04167ZM23 6.5L23.0597 6.95443C23.2878 6.92447 23.4583 6.73006 23.4583 6.5C23.4583 6.26994 23.2878 6.07553 23.0597 6.04557L23 6.5ZM11.8429 1L12.2066 0.721184C12.062 0.532463 11.797 0.485696 11.5965 0.613492C11.396 0.741287 11.3265 1.0012 11.4365 1.21201L11.8429 1ZM11.8429 12L11.4365 11.788C11.3265 11.9988 11.396 12.2587 11.5965 12.3865C11.797 12.5143 12.062 12.4675 12.2066 12.2788L11.8429 12ZM1 6.95833L23 6.95833L23 6.04167L1 6.04167L1 6.95833ZM23.0597 6.04557C19.8494 5.62396 17.793 5.12935 16.2155 4.33286C14.6527 3.5438 13.5241 2.44004 12.2066 0.721184L11.4791 1.27882C12.8377 3.05146 14.0663 4.27463 15.8023 5.15115C17.5236 6.02025 19.7077 6.52989 22.9403 6.95443L23.0597 6.04557ZM22.9403 6.04557C19.7077 6.47011 17.5236 6.97975 15.8023 7.84885C14.0663 8.72537 12.8377 9.94854 11.4791 11.7212L12.2066 12.2788C13.5241 10.56 14.6527 9.4562 16.2155 8.66713C17.793 7.87065 19.8494 7.37604 23.0597 6.95443L22.9403 6.04557ZM5.71429 6.95833L23 6.95833L23 6.04167L5.71429 6.04167L5.71429 6.95833ZM23 6.04167C19.7372 6.04167 17.5046 5.57439 15.8695 4.70107C14.2463 3.83414 13.164 2.54134 12.2492 0.787991L11.4365 1.21201C12.4074 3.07295 13.6037 4.53014 15.4376 5.50964C17.2596 6.48275 19.6628 6.95833 23 6.95833L23 6.04167ZM23 6.04167C19.6628 6.04167 17.2596 6.51725 15.4376 7.49036C13.6037 8.46986 12.4074 9.92705 11.4365 11.788L12.2492 12.212C13.164 10.4587 14.2463 9.16586 15.8695 8.29893C17.5046 7.42561 19.7372 6.95833 23 6.95833L23 6.04167Z" fill="#1D1D1C"/>
</svg>
