<svg width="38" height="49" viewBox="0 0 38 49" fill="none" xmlns="http://www.w3.org/2000/svg">
<path d="M30.1915 24.6459C20.0879 29.7415 6.66786 25.3369 1.28448 23.8712C1.75381 26.0362 0.336661 30.7216 0.354833 31.0885C26.4613 31.8011 31.8054 22.7272 30.1915 24.6459Z" fill="#1D1D1C"/>
<path d="M33.9242 25.2966C26.3129 30.9981 11.7817 32.6697 6.52603 33.1732C6.93229 34.0648 10.6316 34.3161 12.7366 34.3366C24.0574 34.4468 38.3626 28.5554 36.9675 27.8039C34.0374 27.5813 34.9446 25.7931 33.9242 25.2966Z" fill="#1D1D1C"/>
<path d="M31.3613 33.414C21.9116 37.0914 10.3328 36.9805 5.18425 35.3817C4.18124 38.8906 1.46579 38.6681 1.48831 39.1229C21.4404 41.6904 32.1108 33.9239 31.3613 33.414Z" fill="#1D1D1C"/>
<path d="M8.70534 43.6301C8.80736 43.7886 8.89584 43.8941 8.89584 43.8941C8.89584 43.8941 8.48701 43.6098 8.70534 43.6301C8.37137 43.1112 7.89238 42.0233 9.89839 42.2033C13.1718 42.497 19.3928 43.5333 27.2226 38.9514C30.6768 37.4127 28.3916 42.4493 25.7366 43.6749C15.222 49.1075 18.1114 48.045 12.6467 45.3736C9.85091 44.007 8.93405 43.6514 8.70534 43.6301Z" fill="#1D1D1C"/>
<path d="M13.2231 20.4607H8.63184" stroke="#1D1D1C" stroke-width="0.734606"/>
<path d="M28.466 20.4607H23.8748" stroke="#1D1D1C" stroke-width="0.734606"/>
<path d="M4.77539 13.8493L15.7945 20.4607H18.4574M31.9558 14.0329L21.1204 20.4607H18.4574M20.5694 17.706L22.9569 14.0329M16.1618 17.706L13.7743 14.0329M18.4574 20.4607V5.58496" stroke="#1D1D1C" stroke-width="0.734606" stroke-linecap="round" stroke-linejoin="round"/>
<mask id="path-5-inside-1_8_1000" fill="white">
<rect x="16.8967" y="2.64648" width="3.30573" height="3.30573" rx="0.367303"/>
</mask>
<rect x="16.8967" y="2.64648" width="3.30573" height="3.30573" rx="0.367303" stroke="#1D1D1C" stroke-width="2.20382" mask="url(#path-5-inside-1_8_1000)"/>
<mask id="path-6-inside-2_8_1000" fill="white">
<rect x="27.5483" y="18.8076" width="3.30573" height="3.30573" rx="0.367303"/>
</mask>
<rect x="27.5483" y="18.8076" width="3.30573" height="3.30573" rx="0.367303" stroke="#1D1D1C" stroke-width="2.20382" mask="url(#path-6-inside-2_8_1000)"/>
<mask id="path-7-inside-3_8_1000" fill="white">
<rect x="6.24487" y="18.8076" width="3.30573" height="3.30573" rx="0.367303"/>
</mask>
<rect x="6.24487" y="18.8076" width="3.30573" height="3.30573" rx="0.367303" stroke="#1D1D1C" stroke-width="2.20382" mask="url(#path-7-inside-3_8_1000)"/>
<mask id="path-8-inside-4_8_1000" fill="white">
<rect x="2.77612" y="10.7268" width="3.30573" height="3.30573" rx="0.367303" transform="rotate(30.4189 2.77612 10.7268)"/>
</mask>
<rect x="2.77612" y="10.7268" width="3.30573" height="3.30573" rx="0.367303" transform="rotate(30.4189 2.77612 10.7268)" stroke="#1D1D1C" stroke-width="2.20382" mask="url(#path-8-inside-4_8_1000)"/>
<mask id="path-9-inside-5_8_1000" fill="white">
<rect width="3.30573" height="3.30573" rx="0.367303" transform="matrix(-0.862347 0.506318 0.506318 0.862347 34.0718 10.7268)"/>
</mask>
<rect width="3.30573" height="3.30573" rx="0.367303" transform="matrix(-0.862347 0.506318 0.506318 0.862347 34.0718 10.7268)" stroke="#1D1D1C" stroke-width="2.20382" mask="url(#path-9-inside-5_8_1000)"/>
<mask id="path-10-inside-6_8_1000" fill="white">
<rect width="3.30573" height="3.30573" rx="0.367303" transform="matrix(-0.547894 0.836548 0.836548 0.547894 23.4824 10.3599)"/>
</mask>
<rect width="3.30573" height="3.30573" rx="0.367303" transform="matrix(-0.547894 0.836548 0.836548 0.547894 23.4824 10.3599)" stroke="#1D1D1C" stroke-width="2.20382" mask="url(#path-10-inside-6_8_1000)"/>
<mask id="path-11-inside-7_8_1000" fill="white">
<rect x="13.4177" y="10.3599" width="3.30573" height="3.30573" rx="0.367303" transform="rotate(56.7773 13.4177 10.3599)"/>
</mask>
<rect x="13.4177" y="10.3599" width="3.30573" height="3.30573" rx="0.367303" transform="rotate(56.7773 13.4177 10.3599)" stroke="#1D1D1C" stroke-width="2.20382" mask="url(#path-11-inside-7_8_1000)"/>
<path d="M2.27827 3.61715C2.27701 3.58958 2.3101 3.58436 2.32986 3.58124C2.48791 3.55629 3.22532 3.55986 3.84793 3.65914C3.8882 3.66557 3.91921 3.66689 3.94272 3.66318C3.98858 3.65594 4.00291 3.63116 4.03088 3.57575C4.06464 3.50894 4.11087 3.41747 4.25889 3.3234C4.31998 3.28459 4.39378 3.25813 4.4782 3.24481C4.81079 3.19231 5.26605 3.34648 5.56074 3.61137C5.56258 3.61302 5.5635 3.61326 5.5636 3.61325C5.58495 3.60988 5.6459 3.51375 5.7238 3.17384C5.78076 2.92529 5.83047 2.6141 5.85044 2.381C5.88041 2.03132 6.04719 1.51997 6.15755 1.18164C6.20464 1.03726 6.24184 0.923237 6.24889 0.879941C6.25434 0.846581 6.26824 0.827883 6.29024 0.824409C6.30437 0.82218 6.31905 0.827143 6.33514 0.839581C6.51695 0.980374 7.05307 2.31006 7.09997 2.73661C7.1385 3.08689 6.9045 3.36479 6.79207 3.49834C6.77877 3.51412 6.76456 3.531 6.75362 3.54494C6.81898 3.50889 6.94516 3.36575 7.11258 3.17583C7.35412 2.90184 7.71914 2.4878 8.22783 2.01795C8.94045 1.35975 9.36747 0.751437 9.62261 0.388016C9.79258 0.145973 9.86393 0.0473578 9.9235 0.0379563C9.93765 0.0357231 9.96427 0.0370311 9.98331 0.0709906C10.0808 0.244867 10.2962 2.16769 9.60965 3.33387C9.22634 3.98502 8.66833 4.37634 8.29908 4.6353C8.08631 4.78451 7.91824 4.90237 7.90328 4.99044C7.89989 5.01046 7.90441 5.02844 7.91756 5.04704C7.96752 5.11775 8.04826 5.201 8.15052 5.30643C8.43191 5.59656 8.85713 6.03502 9.2412 6.81716C9.41378 7.16858 10.8126 8.2743 11.1729 8.53985C11.1905 8.55281 11.603 8.8583 11.5774 8.96701C11.5753 8.97568 11.5673 8.99634 11.537 9.00112C11.4627 9.01285 11.2464 8.9149 10.8941 8.70952C10.4329 8.44073 10.1099 8.20591 9.87403 8.03431C9.64448 7.86729 9.50085 7.76321 9.41354 7.76328C9.428 7.8043 9.46973 7.90895 9.58756 8.17091C9.5904 8.17723 9.59663 8.19224 9.58989 8.20495L9.58374 8.21991L9.57216 8.22173C9.57214 8.22174 9.57212 8.22174 9.57209 8.22174C9.55402 8.2246 9.54238 8.21143 9.44826 8.12512C9.16116 7.86185 8.28692 7.05695 7.24235 7.01536C6.63025 6.99098 5.80536 6.54997 5.41318 5.75423C4.82002 4.5508 4.36508 3.80666 2.5644 3.67764C2.28009 3.65725 2.27935 3.6413 2.27827 3.61715Z" fill="#FFA100"/>
</svg>
